# xmcd CD database file
#
# Track frame offsets:
#	150
#	20332
#	37530
#	63830
#	84337
#	104490
#	128377
#	158630
#	184527
#	208662
#	230610
#	251895
#	271665
#	294302
#
# Disc length: 4246 seconds
#
# Revision: 3
# Processed by: cddbd v1.5.2PL0 Copyright (c) Steve Scherf et al.
# Submitted via: CDex 1.96
#
DISCID=a910940e
DTITLE=Various Jazz Artists - The Soul of Smooth Jazz, Vol. 2 (1999)
DYEAR=1999
DGENRE=Jazz
TTITLE0=Boney James feat Shai - I'll Always Love You
TTITLE1=Atlantic Starr - You
TTITLE2=Kuh - Lover's Journey
TTITLE3=Light of the World - Slow Down
TTITLE4=Eric Essix - For Real
TTITLE5=Rick Brown feat Maysa - Soul on Soul
TTITLE6=Incognito - Marrakech
TTITLE7=Armsted Christian - You Give Me Love
TTITLE8=Calvin Romance - I Wanna Be with You
TTITLE9=Will Downing - Don't Wait for Love
TTITLE10=Nicolas Bearde - Love of My Life
TTITLE11=Mark Portmann - Here I Go Again
TTITLE12=Plunky and Oneness - Just Know That I Love You
TTITLE13=Kashif - Bed You Down
EXTD=YEAR: 1999
EXTT0=
EXTT1=
EXTT2=
EXTT3=
EXTT4=
EXTT5=
EXTT6=
EXTT7=
EXTT8=
EXTT9=
EXTT10=
EXTT11=
EXTT12=
EXTT13=
PLAYORDER=
